<svg id="Layer_1" data-name="Layer 1" xmlns="http://www.w3.org/2000/svg" viewBox="0 0 1080 321.7"><defs><style>.cls-1{fill:#00005a;}.cls-2{fill:#4057e3;}.cls-3{fill:#e60c56;}</style></defs><path class="cls-1" d="M251.08,112.65h17.59L288.18,144l19.5-31.37h17.6v74.19H309.06V138.4l-20.88,31.7h-.43l-20.67-31.38v48.12h-16Z"/><path class="cls-1" d="M341.07,112.65h56v14.52H357.29v15h35v14.52h-35v15.58h40.28v14.52h-56.5Z"/><path class="cls-1" d="M407.65,112.65h15.06l34.76,45.68V112.65h16.12v74.19H459.7l-35.93-47.16v47.16H407.65Z"/><path class="cls-1" d="M505,127.7H482.37v-15h61.48v15H521.27v59.14H505Z"/><path class="cls-1" d="M550,150v-.21c0-21.1,16.64-38.38,39.54-38.38s39.32,17.07,39.32,38.16v.22c0,21.09-16.64,38.37-39.54,38.37S550,171.05,550,150Zm61.8,0v-.21c0-12.73-9.33-23.32-22.48-23.32S567,136.81,567,149.53v.22c0,12.71,9.33,23.31,22.48,23.31S611.76,162.68,611.76,150Z"/><path class="cls-1" d="M639.73,112.65h33.91c9.44,0,16.75,2.65,21.63,7.52,4.13,4.14,6.36,10,6.36,17v.21c0,12-6.47,19.51-15.9,23l18.12,26.5H684.77l-15.9-23.74H656.05v23.74H639.73Zm32.85,36c8,0,12.51-4.24,12.51-10.49V138c0-7-4.87-10.6-12.82-10.6H656.05v21.3Z"/><path class="cls-1" d="M770.85,112.12h15.06l31.79,74.72H800.64l-6.78-16.64H762.48l-6.78,16.64H739.05ZM788,155.79l-9.86-24.07-9.86,24.07Z"/><path class="cls-2" d="M251.28,234.18v-.06a10.85,10.85,0,0,1,11.13-11.05,11,11,0,0,1,8.43,3.3l-3,3.44a7.92,7.92,0,0,0-5.47-2.41c-3.6,0-6.19,3-6.19,6.65v.07c0,3.66,2.53,6.71,6.19,6.71,2.44,0,3.94-1,5.62-2.5l3,3a10.92,10.92,0,0,1-8.76,3.81A10.77,10.77,0,0,1,251.28,234.18Z"/><path class="cls-2" d="M287.45,223.44h4.69v17.08h10.65v4.28H287.45Z"/><path class="cls-2" d="M318.45,235.64v-12.2h4.7v12.08c0,3.48,1.74,5.28,4.61,5.28s4.61-1.74,4.61-5.13V223.44h4.69v12.05c0,6.47-3.63,9.64-9.36,9.64S318.45,241.93,318.45,235.64Z"/><path class="cls-2" d="M359.61,227.77h-6.5v-4.33H370.8v4.33h-6.49v17h-4.7Z"/><path class="cls-2" d="M392.76,227.77h-6.5v-4.33H404v4.33h-6.5v17h-4.7Z"/><path class="cls-2" d="M420.16,223.44h16.11v4.18H424.83V232H434.9v4.18H424.83v4.48h11.6v4.19H420.16Z"/><path class="cls-2" d="M453.87,223.44h9.77a8.52,8.52,0,0,1,6.22,2.16,6.71,6.71,0,0,1,1.83,4.88v.07a6.64,6.64,0,0,1-4.57,6.62l5.21,7.63h-5.49L462.26,238h-3.69v6.84h-4.7Zm9.46,10.37c2.29,0,3.6-1.22,3.6-3v-.06c0-2-1.4-3-3.69-3h-4.67v6.13Z"/><path class="cls-2" d="M515.82,227.77h-6.5v-4.33H527v4.33h-6.5v17h-4.7Z"/><path class="cls-2" d="M541.88,234.18v-.06a11.36,11.36,0,0,1,22.7-.07v.07a11.36,11.36,0,0,1-22.7.06Zm17.79,0v-.06a6.49,6.49,0,0,0-6.47-6.72,6.39,6.39,0,0,0-6.41,6.65v.07a6.49,6.49,0,0,0,6.47,6.71A6.39,6.39,0,0,0,559.67,234.18Z"/><path class="cls-2" d="M602.73,234.18v-.06a10.86,10.86,0,0,1,11.14-11.05,11,11,0,0,1,8.42,3.3l-3,3.44a7.9,7.9,0,0,0-5.46-2.41c-3.6,0-6.19,3-6.19,6.65v.07c0,3.66,2.53,6.71,6.19,6.71,2.44,0,3.94-1,5.61-2.5l3,3a11.26,11.26,0,0,1-19.71-7.17Z"/><path class="cls-2" d="M638.9,223.44h4.7v17.08h10.65v4.28H638.9Z"/><path class="cls-2" d="M678.68,223.28H683l9.15,21.52h-4.91l-2-4.8h-9l-2,4.8h-4.79Zm4.94,12.57-2.84-6.92L678,235.85Z"/><path class="cls-2" d="M708.24,223.44H718a8.54,8.54,0,0,1,6.23,2.16,6.71,6.71,0,0,1,1.83,4.88v.07a6.64,6.64,0,0,1-4.58,6.62l5.22,7.63h-5.49L716.63,238h-3.69v6.84h-4.7Zm9.46,10.37c2.29,0,3.6-1.22,3.6-3v-.06c0-2-1.41-3-3.69-3h-4.67v6.13Z"/><path class="cls-2" d="M743.48,223.44h4.7V244.8h-4.7Z"/><path class="cls-2" d="M770.94,227.77h-6.5v-4.33h17.7v4.33h-6.5v17h-4.7Z"/><path class="cls-2" d="M805.47,236.37l-8.21-12.93h5.49l5.1,8.57,5.19-8.57h5.34l-8.21,12.84v8.52h-4.7Z"/><path class="cls-3" d="M721.37,101.82c-1.84,0-3.67,0-5.51,0-.72,0-1-.21-1.11-1-.86-6.23-1.76-12.45-2.64-18.68-.17-1.14.13-1.44,1.51-1.49A55.23,55.23,0,0,0,724,79.38a18.54,18.54,0,0,0,6.23-2.5c3.57-2.39,5.06-5.94,4.14-9.93-.83-3.64-3.66-6-7.9-6.58-7.56-1.08-14.06,1.27-19.77,6.14-.35.29-.7.6-1,.9-1.52,1.36-1.51,1.35-2.84-.12-3.14-3.45-6.27-6.92-9.45-10.34-.59-.63-.75-1,0-1.66,8-8.08,17.46-12.62,29-12.7,6.21,0,12.26.64,17.9,3.38,8,3.9,12.39,10.38,13.39,19.17a26.45,26.45,0,0,1-2,14.66c-2.82,5.9-7.61,9.58-13.6,11.86a49.12,49.12,0,0,1-7.67,2.24c-.79.16-1.22.39-1.33,1.3-.22,1.81-.68,3.6-.93,5.41-.13,1-.55,1.29-1.53,1.24C724.8,101.76,723.08,101.82,721.37,101.82Z"/><path class="cls-3" d="M720.91,110.4c2.88,0,5.76,0,8.64,0,1,0,1.24.31,1.14,1.21-.35,3.4-.67,6.8-1,10.19q-1,10-2.14,20c-.65,6.09-1.32,12.18-1.94,18.27-.07.75-.38.85-1,.85-2.34,0-4.68-.08-7,0-1,0-1.37-.27-1.46-1.25-.5-5.06-1.05-10.11-1.59-15.17-.89-8.32-1.8-16.65-2.66-25-.27-2.7-.68-5.38-.76-8.09,0-.81.21-1.07,1-1.06C715.06,110.43,718,110.4,720.91,110.4Z"/><path class="cls-3" d="M712,178c0-2.54,0-5.09,0-7.63,0-.84.27-1,1.07-1q7.83,0,15.65,0c.86,0,1,.3,1,1.08,0,5.13,0,10.26,0,15.39,0,.9-.28,1.1-1.13,1.09-5.18,0-10.35,0-15.52,0-.91,0-1.11-.29-1.1-1.14C712.08,183.12,712,180.54,712,178Z"/></svg>